<?xml version="1.0" encoding="UTF-8"?>
<svg width="401px" height="74px" viewBox="0 0 401 74" version="1.1" xmlns="http://www.w3.org/2000/svg" xmlns:xlink="http://www.w3.org/1999/xlink">
    <!-- Generator: Sketch 53.1 (72631) - https://sketchapp.com -->
    <title>Portfolio logo</title>
    <desc>Created with Sketch.</desc>
    <defs>
        <linearGradient x1="50%" y1="0%" x2="50%" y2="100%" id="linearGradient-1">
            <stop stop-color="#DC1D07" offset="0%"></stop>
            <stop stop-color="#FFC44A" offset="100%"></stop>
        </linearGradient>
        <path d="M1.584,60.208 L15.164413,1.304 L31.6608656,1.304 C42.0752928,1.304 50.2402037,1.47063083 50.2402037,11.3018501 C50.2402037,12.8015276 49.9902574,14.884413 49.5736803,16.883983 L42.908447,45.8777482 C40.4922999,56.5421216 38.2427836,60.208 26.6619406,60.208 L1.584,60.208 Z M30.2732308,9.808 L25.4621538,9.808 L15.84,51.504 C21.096547,51.504 21.274735,51.504 22.5220513,51.325812 C23.8584615,51.1476239 26.353094,50.7912479 27.6004103,45.4456068 L34.5497436,14.886359 C34.6388376,14.3517949 34.7279316,13.8172308 34.7279316,13.2826667 C34.7279316,10.3425641 32.8569573,9.808 30.2732308,9.808 Z M42.584,60.136 L54.32,9.304 L79.88,9.304 L77.864,18.088 L64.688,18.088 L62.024,29.608 L74.552,29.608 L72.608,38.248 L60.008,38.248 L57.056,51.208 L71.456,51.208 L69.44,60.136 L42.584,60.136 Z M72.584,60.136 L84.32,9.304 L99.152,9.304 C106.352,9.304 113.984,9.304 113.984,17.584 C113.984,20.176 112.904,25.504 111.608,28.168 C109.664,32.344 106.352,33.496 102.536,34.072 C104.48,34.432 109.304,35.368 109.304,39.976 C109.304,40.984 109.088,41.992 108.8,43.648 L107.216,51.352 C107,52.432 106.28,56.032 106.28,56.896 C106.28,59.128 107.792,59.632 108.512,59.92 L108.512,60.352 L97.856,59.992 C95.696,59.92 94.184,59.128 94.184,56.824 C94.184,56.464 94.184,55.96 94.688,53.656 L96.56,44.584 C96.92,42.784 97.064,42.136 97.064,41.488 C97.064,38.968 95.048,38.752 93.464,38.752 L89.936,38.752 L84.968,60.136 L72.584,60.136 Z M94.688,18.088 L91.952,29.752 L95.336,29.752 C97.928,29.68 99.44,29.68 100.592,27.088 C101.312,25.576 102.104,21.04 102.104,20.32 C102.104,18.376 100.52,18.232 99.728,18.16 C99.008,18.088 98.576,18.088 94.688,18.088 Z M110.584,60.136 L122.32,9.304 L147.88,9.304 L145.864,18.088 L132.688,18.088 L130.024,29.608 L142.552,29.608 L140.608,38.248 L128.008,38.248 L125.056,51.208 L139.456,51.208 L137.44,60.136 L110.584,60.136 Z M160.304,31.768 L174.56,9.304 L187.664,9.304 L171.248,32.848 L177.512,60.136 L164.912,60.136 L160.088,32.848 L153.824,60.136 L141.584,60.136 L153.32,9.304 L165.56,9.304 L160.304,31.768 Z M201.164413,1.304 L215.494665,1.304 L209.995847,25.2988402 L219.743751,25.2988402 L225.242569,1.304 L239.57282,1.304 L225.909092,60.208 L211.662156,60.208 L217.410919,35.4633211 L207.663016,35.4633211 L201.914252,60.208 L187.584,60.208 L201.164413,1.304 Z M233.448,42.296 L238.128,22.64 C240.072,14.36 242.088,7.304 256.128,7.304 C258.792,7.304 264.264,7.664 267.576,9.968 C271.032,12.416 271.536,15.8 271.536,18.32 C271.536,21.632 270.456,26.168 269.664,29.48 L265.632,46.616 C263.256,56.552 259.08,60.08 247.848,60.08 C241.152,60.08 232.584,58.208 232.584,48.632 C232.584,46.688 233.088,43.88 233.448,42.296 Z M251.808,19.544 C250.872,22.712 244.752,46.04 244.752,47.912 C244.752,49.856 246.12,50.864 248.496,50.864 C251.88,50.864 252.744,48.416 253.896,43.88 C254.616,41.144 257.784,27.824 258.504,24.8 C259.512,20.84 259.584,20.408 259.584,19.688 C259.584,17.744 258.432,16.448 256.056,16.448 C252.888,16.448 252.24,18.176 251.808,19.544 Z M271.388739,39.112 L278.444739,9.304 L290.684739,9.304 L282.332739,45.664 C282.188739,46.096 281.900739,47.392 281.900739,48.472 C281.900739,50.56 283.412739,51.496 285.644739,51.496 C289.172739,51.496 290.036739,48.472 290.756739,45.664 L299.108739,9.304 L311.348739,9.304 L302.924739,45.664 C301.124739,53.44 298.604739,61 284.708739,61 C276.572739,61 269.372739,58.12 269.588739,49.84 C269.660739,47.464 270.092739,44.656 271.388739,39.112 Z M345.104,22.2 L343.592,28.464 L331.784,28.464 L333.152,22.488 C333.296,21.984 333.368,21.408 333.368,20.832 C333.368,17.952 331.208,17.592 329.552,17.592 C326.6,17.592 326.024,19.032 325.448,20.616 L319.4,46.68 C319.184,47.544 318.968,48.48 318.968,49.344 C318.968,51.864 321.416,52.152 322.496,52.152 C325.664,52.152 326.456,49.992 326.816,48.984 C327.68,46.536 328.328,43.584 328.904,40.848 L341.504,40.848 L339.704,48.192 C337.472,57.336 334.304,61.008 321.848,61.008 C318.608,61.008 315.656,60.72 313.136,59.712 C310.616,58.704 306.584,56.184 306.584,50.928 C306.584,50.136 306.584,48.552 307.736,43.8 L312.632,22.416 C314.216,15.432 316.16,12.84 318.32,11.256 C321.704,8.736 327.392,8.304 330.56,8.304 C333.656,8.304 337.544,8.736 340.064,9.816 C342.512,10.896 345.536,13.128 345.536,18.6 C345.536,19.68 345.392,20.904 345.104,22.2 Z M358.304,31.768 L372.56,9.304 L385.664,9.304 L369.248,32.848 L375.512,60.136 L362.912,60.136 L358.088,32.848 L351.824,60.136 L339.584,60.136 L351.32,9.304 L363.56,9.304 L358.304,31.768 Z" id="path-2"></path>
        <filter x="-2.2%" y="-12.6%" width="107.9%" height="145.2%" filterUnits="objectBoundingBox" id="filter-3">
            <feMorphology radius="1.5" operator="dilate" in="SourceAlpha" result="shadowSpreadOuter1"></feMorphology>
            <feOffset dx="6" dy="6" in="shadowSpreadOuter1" result="shadowOffsetOuter1"></feOffset>
            <feGaussianBlur stdDeviation="2" in="shadowOffsetOuter1" result="shadowBlurOuter1"></feGaussianBlur>
            <feComposite in="shadowBlurOuter1" in2="SourceAlpha" operator="out" result="shadowBlurOuter1"></feComposite>
            <feColorMatrix values="0 0 0 0 0   0 0 0 0 0   0 0 0 0 0  0 0 0 0.75 0" type="matrix" in="shadowBlurOuter1" result="shadowMatrixOuter1"></feColorMatrix>
            <feMorphology radius="1.5" operator="dilate" in="SourceAlpha" result="shadowSpreadOuter2"></feMorphology>
            <feOffset dx="3" dy="3" in="shadowSpreadOuter2" result="shadowOffsetOuter2"></feOffset>
            <feComposite in="shadowOffsetOuter2" in2="SourceAlpha" operator="out" result="shadowOffsetOuter2"></feComposite>
            <feColorMatrix values="0 0 0 0 0.031372549   0 0 0 0 0.341176471   0 0 0 0 0.658823529  0 0 0 1 0" type="matrix" in="shadowOffsetOuter2" result="shadowMatrixOuter2"></feColorMatrix>
            <feMerge>
                <feMergeNode in="shadowMatrixOuter1"></feMergeNode>
                <feMergeNode in="shadowMatrixOuter2"></feMergeNode>
            </feMerge>
        </filter>
        <filter x="-0.9%" y="-4.2%" width="105.3%" height="128.5%" filterUnits="objectBoundingBox" id="filter-4">
            <feMorphology radius="1" operator="erode" in="SourceAlpha" result="shadowSpreadInner1"></feMorphology>
            <feGaussianBlur stdDeviation="0.5" in="shadowSpreadInner1" result="shadowBlurInner1"></feGaussianBlur>
            <feOffset dx="1" dy="1" in="shadowBlurInner1" result="shadowOffsetInner1"></feOffset>
            <feComposite in="shadowOffsetInner1" in2="SourceAlpha" operator="arithmetic" k2="-1" k3="1" result="shadowInnerInner1"></feComposite>
            <feColorMatrix values="0 0 0 0 1   0 0 0 0 1   0 0 0 0 1  0 0 0 0.5 0" type="matrix" in="shadowInnerInner1"></feColorMatrix>
        </filter>
    </defs>
    <g id="Page-1" stroke="none" stroke-width="1" fill="none" fill-rule="evenodd">
        <g id="Outlines" fill-rule="nonzero">
            <use fill="black" fill-opacity="1" filter="url(#filter-3)" xlink:href="#path-2"></use>
            <use fill="url(#linearGradient-1)" xlink:href="#path-2"></use>
            <use fill="black" fill-opacity="1" filter="url(#filter-4)" xlink:href="#path-2"></use>
            <use xlink:href="#path-2"></use>
        </g>
    </g>
</svg>