<?xml version="1.0" encoding="UTF-8"?>
<svg width="397px" height="73px" viewBox="0 0 397 73" version="1.1" xmlns="http://www.w3.org/2000/svg" xmlns:xlink="http://www.w3.org/1999/xlink">
    <!-- Generator: Sketch 53.2 (72643) - https://sketchapp.com -->
    <title>Smooth lines</title>
    <desc>Created with Sketch.</desc>
    <defs>
        <path d="M325.264,64.704 C322.024,64.704 319.072,64.416 316.552,63.408 C315.209109,62.8708438 313.436849,61.9043173 312.074182,60.3231947 C311.725877,60.0211607 311.389092,59.6885894 311.074182,59.3231947 C310.725877,59.0211607 310.389092,58.6885894 310.074182,58.3231947 C309.725877,58.0211607 309.389092,57.6885894 309.074182,57.3231947 C308.725877,57.0211607 308.389092,56.6885894 308.074182,56.3231947 C307.010523,55.4008395 306.0543,54.1937005 305.500404,52.636672 C303.596332,59.1295659 300.048614,64.696 288.124739,64.696 C282.805758,64.696 277.886824,63.4650869 275.178558,60.2991306 C274.818746,59.9898208 274.484543,59.656826 274.178558,59.2991306 C273.818746,58.9898208 273.484543,58.656826 273.178558,58.2991306 C272.818746,57.9898208 272.484543,57.656826 272.178558,57.2991306 C271.818746,56.9898208 271.484543,56.656826 271.178558,56.2991306 C269.966551,55.2572365 269.045101,53.9466005 268.514009,52.3284104 C266.044846,60.7302052 261.700218,63.776 251.264,63.776 C246.738228,63.776 241.357271,62.9208146 238.344661,59.4097116 C237.988661,59.1031086 237.654163,58.7704261 237.344661,58.4097116 C236.988661,58.1031086 236.654163,57.7704261 236.344661,57.4097116 C235.988661,57.1031086 235.654163,56.7704261 235.344661,56.4097116 C234.988661,56.1031086 234.654163,55.7704261 234.344661,55.4097116 C233.388138,54.5859111 232.586839,53.5738369 232.008565,52.3356145 L229.325092,63.904 L215.078156,63.904 L210.078156,58.904 L214.665303,39.1593211 L211.079016,39.1593211 L205.330252,63.904 L191,63.904 L186,58.904 L199.580413,-5.68434189e-14 L213.910665,-5.68434189e-14 L218.910665,5 L214.557681,23.9948402 L218.159751,23.9948402 L223.658569,-5.68434189e-14 L237.98882,-5.68434189e-14 L242.98882,5 L241.907173,9.66295418 C244.446339,7.39117323 248.309833,6 254.544,6 C257.208,6 262.68,6.36 265.992,8.664 C266.6955,9.16231232 267.27668,9.69940898 267.756188,10.2601075 C268.130807,10.5822665 268.46256,10.9167619 268.756188,11.2601075 C269.130807,11.5822665 269.46256,11.9167619 269.756188,12.2601075 C270.130807,12.5822665 270.46256,12.9167619 270.756188,13.2601075 C271.130807,13.5822665 271.46256,13.9167619 271.756188,14.2601075 C273.178658,15.4833828 273.983088,16.8845241 274.429043,18.2726733 L276.860739,8 L289.100739,8 L294.100739,13 L285.748739,49.36 C285.704955,49.4913498 285.64786,49.7025736 285.589595,49.9633142 C287.867623,49.2081933 288.570547,46.7085477 289.172739,44.36 L297.524739,8 L309.764739,8 L313.764739,12 L313.533055,13 L313.971133,13 C314.840562,11.5769585 315.766524,10.6629487 316.736,9.952 C320.12,7.432 325.808,7 328.976,7 C332.072,7 335.96,7.432 338.48,8.512 C339.628861,9.01885049 340.904585,9.77942682 341.935063,11.0095526 C342.284153,11.3033436 342.620998,11.6346403 342.935063,12.0095526 C343.284153,12.3033436 343.620998,12.6346403 343.935063,13.0095526 C344.284153,13.3033436 344.620998,13.6346403 344.935063,14.0095526 C345.284153,14.3033436 345.620998,14.6346403 345.935063,15.0095526 C346.569425,15.5434251 347.163349,16.2011471 347.653621,17.0193823 L349.736,8 L361.976,8 L366.976,13 L366.493077,15.064 L370.976,8 L384.08,8 L389.08,13 L372.664,36.544 L378.928,63.832 L366.328,63.832 L361.328,58.832 L359.178674,46.6738701 L355.24,63.832 L343,63.832 L339.457504,60.3231947 L339.872618,59.832 C337.312892,63.2322473 333.149781,64.704 325.264,64.704 Z M344.157983,32.16 L335.2,32.16 L330.2,27.16 L331.509621,21.4390259 C329.794098,21.8480988 329.329049,23.0331157 328.864,24.312 L322.816,50.376 C322.802967,50.4281333 322.789933,50.4805287 322.776947,50.5331547 C324.428366,49.8964645 324.956596,48.4511321 325.232,47.68 C326.096,45.232 326.744,42.28 327.32,39.544 L339.92,39.544 L341.92,41.544 L341.674902,42.544 L341.760544,42.544 L344.157983,32.16 Z M140.856,63.832 L114,63.832 L110,59.832 L110.230878,58.832 L109.920225,58.832 C109.789983,59.6105528 109.696,60.2798439 109.696,60.592 C109.696,60.9634145 109.737868,61.28698 109.810987,61.5696635 C109.851876,61.5858169 109.890985,61.6011939 109.928,61.616 L109.928,61.9277926 C109.970116,62.0328115 110.017007,62.1310205 110.06786,62.2229535 C110.385356,62.4092888 110.697325,62.52373 110.928,62.616 L110.928,63.048 L110.794816,63.0435006 C111.199514,63.3417464 111.631096,63.4972383 111.928,63.616 L111.928,64.048 L101.272,63.688 C99.7363185,63.6368106 98.5281811,63.2216833 97.9580838,62.1579967 C97.5319747,61.9203876 97.1915345,61.5935688 96.9580838,61.1579967 C96.5319747,60.9203876 96.1915345,60.5935688 95.9580838,60.1579967 C95.5319747,59.9203876 95.1915345,59.5935688 94.9580838,59.1579967 C94.5319747,58.9203876 94.1915345,58.5935688 93.9580838,58.1579967 C93.1089365,57.6844908 92.6,56.8567137 92.6,55.52 C92.6,55.16 92.6,54.656 93.104,52.352 L94.976,43.28 C95.037885,42.9705751 95.093387,42.6951924 95.1428719,42.448 L93.352,42.448 L88.384,63.832 L76,63.832 L73.5334194,60.832 L72.856,63.832 L46,63.832 L42.4529005,59.832 C40.1532021,62.7443201 36.5915277,63.904 30.0779406,63.904 L5,63.904 L1.42108547e-13,58.904 L13.580413,-5.68434189e-14 L30.0768656,-5.68434189e-14 C37.5322278,-5.68434189e-14 43.834785,0.0853929637 46.8144169,3.74059731 C47.1800253,4.04004461 47.5140993,4.37218872 47.8144169,4.74059731 C48.1800253,5.04004461 48.5140993,5.37218872 48.8144169,5.74059731 C49.1800253,6.04004461 49.5140993,6.37218872 49.8144169,6.74059731 C50.1800253,7.04004461 50.5140993,7.37218872 50.8144169,7.74059731 C51.4286677,8.24369224 51.9539074,8.83907925 52.3795986,9.54367728 L52.736,8 L78.296,8 L81.8124873,12 L82.736,8 L97.568,8 C102.841507,8 108.346763,8 110.915283,11.2533545 C111.284375,11.5468116 111.619325,11.8784859 111.915283,12.2533545 C112.284375,12.5468116 112.619325,12.8784859 112.915283,13.2533545 C113.284375,13.5468116 113.619325,13.8784859 113.915283,14.2533545 C114.284375,14.5468116 114.619325,14.8784859 114.915283,15.2533545 C116.454563,16.477201 117.4,18.3657454 117.4,21.28 C117.4,21.7315897 117.367218,22.2662284 117.306222,22.8553586 L120.736,8 L146.296,8 L150.581609,13 L151.736,8 L163.976,8 L168.976,13 L168.493077,15.064 L172.976,8 L186.08,8 L191.08,13 L174.664,36.544 L180.928,63.832 L168.328,63.832 L163.328,58.832 L161.178674,46.6738701 L157.24,63.832 L145,63.832 L141.759226,59.832 L140.856,63.832 Z M143.899071,41.944 L131.424,41.944 L129.610889,49.904 L137.872,49.904 L141.137768,53.904 L143.899071,41.944 Z M148.553575,21.784 L136.104,21.784 L134.59625,28.304 L140.968,28.304 L145.893858,33.304 L148.553575,21.784 Z M115.024,31.864 C113.523158,35.0880303 111.20693,36.509628 108.472901,37.2552829 C108.5683,37.3610409 108.659712,37.4713568 108.746593,37.5864486 C109.116886,37.8720768 109.45692,38.2027174 109.746593,38.5864486 C110.116886,38.8720768 110.45692,39.2027174 110.746593,39.5864486 C111.719781,40.3371236 112.48396,41.3987086 112.674231,42.9178445 L115.460709,30.848807 C115.318862,31.2168941 115.172856,31.5580192 115.024,31.864 Z M74.8990708,41.944 L63.424,41.944 L61.6108889,49.904 L69.872,49.904 L72.3686459,52.904 L74.8990708,41.944 Z M79.5535751,21.784 L68.104,21.784 L66.59625,28.304 L72.968,28.304 L76.968,32.304 L79.5535751,21.784 Z" id="path-1"></path>
        <filter x="-1.0%" y="-6.2%" width="104.1%" height="124.7%" filterUnits="objectBoundingBox" id="filter-2">
            <feOffset dx="4" dy="4" in="SourceAlpha" result="shadowOffsetOuter1"></feOffset>
            <feGaussianBlur stdDeviation="2" in="shadowOffsetOuter1" result="shadowBlurOuter1"></feGaussianBlur>
            <feColorMatrix values="0 0 0 0 0   0 0 0 0 0   0 0 0 0 0  0 0 0 0.75 0" type="matrix" in="shadowBlurOuter1"></feColorMatrix>
        </filter>
        <linearGradient x1="50%" y1="0%" x2="50%" y2="100%" id="linearGradient-3">
            <stop stop-color="#DC1D07" offset="0%"></stop>
            <stop stop-color="#FFC44A" offset="100%"></stop>
        </linearGradient>
        <path d="M2.48689958e-14,58.904 L13.580413,-3.55271368e-15 L30.0768656,-3.55271368e-15 C40.4912928,-3.55271368e-15 48.6562037,0.166630835 48.6562037,9.99785007 C48.6562037,11.4975276 48.4062574,13.580413 47.9896803,15.579983 L41.324447,44.5737482 C38.9082999,55.2381216 36.6587836,58.904 25.0779406,58.904 L2.48689958e-14,58.904 Z M28.6892308,8.504 L23.8781538,8.504 L14.256,50.2 C19.512547,50.2 19.690735,50.2 20.9380513,50.021812 C22.2744615,49.8436239 24.769094,49.4872479 26.0164103,44.1416068 L32.9657436,13.582359 C33.0548376,13.0477949 33.1439316,12.5132308 33.1439316,11.9786667 C33.1439316,9.0385641 31.2729573,8.504 28.6892308,8.504 Z M41,58.832 L52.736,8 L78.296,8 L76.28,16.784 L63.104,16.784 L60.44,28.304 L72.968,28.304 L71.024,36.944 L58.424,36.944 L55.472,49.904 L69.872,49.904 L67.856,58.832 L41,58.832 Z M71,58.832 L82.736,8 L97.568,8 C104.768,8 112.4,8 112.4,16.28 C112.4,18.872 111.32,24.2 110.024,26.864 C108.08,31.04 104.768,32.192 100.952,32.768 C102.896,33.128 107.72,34.064 107.72,38.672 C107.72,39.68 107.504,40.688 107.216,42.344 L105.632,50.048 C105.416,51.128 104.696,54.728 104.696,55.592 C104.696,57.824 106.208,58.328 106.928,58.616 L106.928,59.048 L96.272,58.688 C94.112,58.616 92.6,57.824 92.6,55.52 C92.6,55.16 92.6,54.656 93.104,52.352 L94.976,43.28 C95.336,41.48 95.48,40.832 95.48,40.184 C95.48,37.664 93.464,37.448 91.88,37.448 L88.352,37.448 L83.384,58.832 L71,58.832 Z M93.104,16.784 L90.368,28.448 L93.752,28.448 C96.344,28.376 97.856,28.376 99.008,25.784 C99.728,24.272 100.52,19.736 100.52,19.016 C100.52,17.072 98.936,16.928 98.144,16.856 C97.424,16.784 96.992,16.784 93.104,16.784 Z M109,58.832 L120.736,8 L146.296,8 L144.28,16.784 L131.104,16.784 L128.44,28.304 L140.968,28.304 L139.024,36.944 L126.424,36.944 L123.472,49.904 L137.872,49.904 L135.856,58.832 L109,58.832 Z M158.72,30.464 L172.976,8 L186.08,8 L169.664,31.544 L175.928,58.832 L163.328,58.832 L158.504,31.544 L152.24,58.832 L140,58.832 L151.736,8 L163.976,8 L158.72,30.464 Z M199.580413,0 L213.910665,0 L208.411847,23.9948402 L218.159751,23.9948402 L223.658569,0 L237.98882,0 L224.325092,58.904 L210.078156,58.904 L215.826919,34.1593211 L206.079016,34.1593211 L200.330252,58.904 L186,58.904 L199.580413,0 Z M231.864,40.992 L236.544,21.336 C238.488,13.056 240.504,6 254.544,6 C257.208,6 262.68,6.36 265.992,8.664 C269.448,11.112 269.952,14.496 269.952,17.016 C269.952,20.328 268.872,24.864 268.08,28.176 L264.048,45.312 C261.672,55.248 257.496,58.776 246.264,58.776 C239.568,58.776 231,56.904 231,47.328 C231,45.384 231.504,42.576 231.864,40.992 Z M250.224,18.24 C249.288,21.408 243.168,44.736 243.168,46.608 C243.168,48.552 244.536,49.56 246.912,49.56 C250.296,49.56 251.16,47.112 252.312,42.576 C253.032,39.84 256.2,26.52 256.92,23.496 C257.928,19.536 258,19.104 258,18.384 C258,16.44 256.848,15.144 254.472,15.144 C251.304,15.144 250.656,16.872 250.224,18.24 Z M269.804739,37.808 L276.860739,8 L289.100739,8 L280.748739,44.36 C280.604739,44.792 280.316739,46.088 280.316739,47.168 C280.316739,49.256 281.828739,50.192 284.060739,50.192 C287.588739,50.192 288.452739,47.168 289.172739,44.36 L297.524739,8 L309.764739,8 L301.340739,44.36 C299.540739,52.136 297.020739,59.696 283.124739,59.696 C274.988739,59.696 267.788739,56.816 268.004739,48.536 C268.076739,46.16 268.508739,43.352 269.804739,37.808 Z M343.52,20.896 L342.008,27.16 L330.2,27.16 L331.568,21.184 C331.712,20.68 331.784,20.104 331.784,19.528 C331.784,16.648 329.624,16.288 327.968,16.288 C325.016,16.288 324.44,17.728 323.864,19.312 L317.816,45.376 C317.6,46.24 317.384,47.176 317.384,48.04 C317.384,50.56 319.832,50.848 320.912,50.848 C324.08,50.848 324.872,48.688 325.232,47.68 C326.096,45.232 326.744,42.28 327.32,39.544 L339.92,39.544 L338.12,46.888 C335.888,56.032 332.72,59.704 320.264,59.704 C317.024,59.704 314.072,59.416 311.552,58.408 C309.032,57.4 305,54.88 305,49.624 C305,48.832 305,47.248 306.152,42.496 L311.048,21.112 C312.632,14.128 314.576,11.536 316.736,9.952 C320.12,7.432 325.808,7 328.976,7 C332.072,7 335.96,7.432 338.48,8.512 C340.928,9.592 343.952,11.824 343.952,17.296 C343.952,18.376 343.808,19.6 343.52,20.896 Z M356.72,30.464 L370.976,8 L384.08,8 L367.664,31.544 L373.928,58.832 L361.328,58.832 L356.504,31.544 L350.24,58.832 L338,58.832 L349.736,8 L361.976,8 L356.72,30.464 Z" id="path-4"></path>
        <filter x="-0.4%" y="-2.5%" width="100.8%" height="105.0%" filterUnits="objectBoundingBox" id="filter-5">
            <feMorphology radius="1" operator="erode" in="SourceAlpha" result="shadowSpreadInner1"></feMorphology>
            <feGaussianBlur stdDeviation="0.5" in="shadowSpreadInner1" result="shadowBlurInner1"></feGaussianBlur>
            <feOffset dx="1" dy="1" in="shadowBlurInner1" result="shadowOffsetInner1"></feOffset>
            <feComposite in="shadowOffsetInner1" in2="SourceAlpha" operator="arithmetic" k2="-1" k3="1" result="shadowInnerInner1"></feComposite>
            <feColorMatrix values="0 0 0 0 1   0 0 0 0 1   0 0 0 0 1  0 0 0 0.5 0" type="matrix" in="shadowInnerInner1"></feColorMatrix>
        </filter>
    </defs>
    <g id="Page-1" stroke="none" stroke-width="1" fill="none" fill-rule="evenodd">
        <g id="Smooth-lines" transform="translate(0.584000, 0.304000)" fill-rule="nonzero">
            <g id="3D-Effect-Flattened">
                <use fill="black" fill-opacity="1" filter="url(#filter-2)" xlink:href="#path-1"></use>
                <use fill="#0857A8" xlink:href="#path-1"></use>
            </g>
            <g id="Outlines">
                <use fill="url(#linearGradient-3)" xlink:href="#path-4"></use>
                <use fill="black" fill-opacity="1" filter="url(#filter-5)" xlink:href="#path-4"></use>
                <use xlink:href="#path-4"></use>
            </g>
        </g>
    </g>
</svg>