<?xml version="1.0" encoding="UTF-8"?>
<svg width="398px" height="74px" viewBox="0 0 398 74" version="1.1" xmlns="http://www.w3.org/2000/svg" xmlns:xlink="http://www.w3.org/1999/xlink">
    <!-- Generator: Sketch 53.2 (72643) - https://sketchapp.com -->
    <title>Outlines with 3D effect</title>
    <desc>Created with Sketch.</desc>
    <defs>
        <path d="M340.872618,60.832 C338.312892,64.2322473 334.149781,65.704 326.264,65.704 C323.024,65.704 320.072,65.416 317.552,64.408 C316.209109,63.8708438 314.436849,62.9043173 313.074182,61.3231947 C312.725877,61.0211607 312.389092,60.6885894 312.074182,60.3231947 C311.725877,60.0211607 311.389092,59.6885894 311.074182,59.3231947 C310.725877,59.0211607 310.389092,58.6885894 310.074182,58.3231947 C309.725877,58.0211607 309.389092,57.6885894 309.074182,57.3231947 C308.010523,56.4008395 307.0543,55.1937005 306.500404,53.636672 C304.596332,60.1295659 301.048614,65.696 289.124739,65.696 C283.805758,65.696 278.886824,64.4650869 276.178558,61.2991306 C275.818746,60.9898208 275.484543,60.656826 275.178558,60.2991306 C274.818746,59.9898208 274.484543,59.656826 274.178558,59.2991306 C273.818746,58.9898208 273.484543,58.656826 273.178558,58.2991306 C272.818746,57.9898208 272.484543,57.656826 272.178558,57.2991306 C270.966551,56.2572365 270.045101,54.9466005 269.514009,53.3284104 C267.044846,61.7302052 262.700218,64.776 252.264,64.776 C247.738228,64.776 242.357271,63.9208146 239.344661,60.4097116 C238.988661,60.1031086 238.654163,59.7704261 238.344661,59.4097116 C237.988661,59.1031086 237.654163,58.7704261 237.344661,58.4097116 C236.988661,58.1031086 236.654163,57.7704261 236.344661,57.4097116 C235.988661,57.1031086 235.654163,56.7704261 235.344661,56.4097116 C234.388138,55.5859111 233.586839,54.5738369 233.008565,53.3356145 L230.325092,64.904 L216.078156,64.904 L216.310479,63.904 L215.078156,63.904 L215.310479,62.904 L214.078156,62.904 L214.310479,61.904 L213.078156,61.904 L213.310479,60.904 L212.078156,60.904 L212.310479,59.904 L211.078156,59.904 L215.665303,40.1593211 L212.079016,40.1593211 L206.330252,64.904 L192,64.904 L192.230552,63.904 L191,63.904 L191.230552,62.904 L190,62.904 L190.230552,61.904 L189,61.904 L189.230552,60.904 L188,60.904 L188.230552,59.904 L187,59.904 L200.580413,1 L214.910665,1 L214.681498,2 L215.910665,2 L215.681498,3 L216.910665,3 L216.681498,4 L217.910665,4 L217.681498,5 L218.910665,5 L218.681498,6 L219.910665,6 L215.557681,24.9948402 L219.159751,24.9948402 L224.658569,1 L238.98882,1 L238.756854,2 L239.98882,2 L239.756854,3 L240.98882,3 L240.756854,4 L241.98882,4 L241.756854,5 L242.98882,5 L242.756854,6 L243.98882,6 L242.907173,10.6629542 C245.446339,8.39117323 249.309833,7 255.544,7 C258.208,7 263.68,7.36 266.992,9.664 C267.6955,10.1623123 268.27668,10.699409 268.756188,11.2601075 C269.130807,11.5822665 269.46256,11.9167619 269.756188,12.2601075 C270.130807,12.5822665 270.46256,12.9167619 270.756188,13.2601075 C271.130807,13.5822665 271.46256,13.9167619 271.756188,14.2601075 C272.130807,14.5822665 272.46256,14.9167619 272.756188,15.2601075 C274.178658,16.4833828 274.983088,17.8845241 275.429043,19.2726733 L277.860739,9 L290.100739,9 L289.871036,10 L291.100739,10 L290.871036,11 L292.100739,11 L291.871036,12 L293.100739,12 L292.871036,13 L294.100739,13 L293.871036,14 L295.100739,14 L286.748739,50.36 C286.704955,50.4913498 286.64786,50.7025736 286.589595,50.9633142 C288.867623,50.2081933 289.570547,47.7085477 290.172739,45.36 L298.524739,9 L310.764739,9 L310.533055,10 L311.764739,10 L311.533055,11 L312.764739,11 L312.533055,12 L313.764739,12 L313.533055,13 L314.764739,13 L314.533055,14 L314.971133,14 C315.840562,12.5769585 316.766524,11.6629487 317.736,10.952 C321.12,8.432 326.808,8 329.976,8 C333.072,8 336.96,8.432 339.48,9.512 C340.628861,10.0188505 341.904585,10.7794268 342.935063,12.0095526 C343.284153,12.3033436 343.620998,12.6346403 343.935063,13.0095526 C344.284153,13.3033436 344.620998,13.6346403 344.935063,14.0095526 C345.284153,14.3033436 345.620998,14.6346403 345.935063,15.0095526 C346.284153,15.3033436 346.620998,15.6346403 346.935063,16.0095526 C347.569425,16.5434251 348.163349,17.2011471 348.653621,18.0193823 L350.736,9 L362.976,9 L362.742026,10 L363.976,10 L363.742026,11 L364.976,11 L364.742026,12 L365.976,12 L365.742026,13 L366.976,13 L366.742026,14 L367.976,14 L367.493077,16.064 L371.976,9 L385.08,9 L384.382752,10 L386.08,10 L385.382752,11 L387.08,11 L386.382752,12 L388.08,12 L387.382752,13 L389.08,13 L388.382752,14 L390.08,14 L373.664,37.544 L379.928,64.832 L367.328,64.832 L367.151219,63.832 L366.328,63.832 L366.151219,62.832 L365.328,62.832 L365.151219,61.832 L364.328,61.832 L364.151219,60.832 L363.328,60.832 L363.151219,59.832 L362.328,59.832 L360.178674,47.6738701 L356.24,64.832 L344,64.832 L344.230878,63.832 L343,63.832 L343.230878,62.832 L342,62.832 L342.230878,61.832 L341,61.832 L341.230878,60.832 L340.872618,60.832 L340.872618,60.832 Z M342.760544,43.544 L345.157983,33.16 L336.2,33.16 L336.428916,32.16 L335.2,32.16 L335.428916,31.16 L334.2,31.16 L334.428916,30.16 L333.2,30.16 L333.428916,29.16 L332.2,29.16 L332.428916,28.16 L331.2,28.16 L332.509621,22.4390259 C330.794098,22.8480988 330.329049,24.0331157 329.864,25.312 L323.816,51.376 C323.802967,51.4281333 323.789933,51.4805287 323.776947,51.5331547 C325.428366,50.8964645 325.956596,49.4511321 326.232,48.68 C327.096,46.232 327.744,43.28 328.32,40.544 L340.92,40.544 L340.674902,41.544 L341.92,41.544 L341.674902,42.544 L342.92,42.544 L342.674902,43.544 L342.760544,43.544 L342.760544,43.544 Z M142.759226,60.832 L141.856,64.832 L115,64.832 L115.230878,63.832 L114,63.832 L114.230878,62.832 L113,62.832 L113.230878,61.832 L112,61.832 L112.230878,60.832 L111,60.832 L111.230878,59.832 L110.920225,59.832 C110.789983,60.6105528 110.696,61.2798439 110.696,61.592 C110.696,61.9634145 110.737868,62.28698 110.810987,62.5696635 C110.851876,62.5858169 110.890985,62.6011939 110.928,62.616 L110.928,62.9277926 C110.970116,63.0328115 111.017007,63.1310205 111.06786,63.2229535 C111.385356,63.4092888 111.697325,63.52373 111.928,63.616 L111.928,64.048 L111.794816,64.0435006 C112.199514,64.3417464 112.631096,64.4972383 112.928,64.616 L112.928,65.048 L102.272,64.688 C100.736318,64.6368106 99.5281811,64.2216833 98.9580838,63.1579967 C98.5319747,62.9203876 98.1915345,62.5935688 97.9580838,62.1579967 C97.5319747,61.9203876 97.1915345,61.5935688 96.9580838,61.1579967 C96.5319747,60.9203876 96.1915345,60.5935688 95.9580838,60.1579967 C95.5319747,59.9203876 95.1915345,59.5935688 94.9580838,59.1579967 C94.1089365,58.6844908 93.6,57.8567137 93.6,56.52 C93.6,56.16 93.6,55.656 94.104,53.352 L95.976,44.28 C96.037885,43.9705751 96.093387,43.6951924 96.1428719,43.448 L94.352,43.448 L89.384,64.832 L77,64.832 L77.2308782,63.832 L76,63.832 L76.2308782,62.832 L75,62.832 L75.2308782,61.832 L74.5334194,61.832 L73.856,64.832 L47,64.832 L47.2308782,63.832 L46,63.832 L46.2308782,62.832 L45,62.832 L45.2308782,61.832 L44,61.832 L44.2308782,60.832 L43.4529005,60.832 C41.1532021,63.7443201 37.5915277,64.904 31.0779406,64.904 L6,64.904 L6.23055163,63.904 L5,63.904 L5.23055163,62.904 L4,62.904 L4.23055163,61.904 L3,61.904 L3.23055163,60.904 L2,60.904 L2.23055163,59.904 L1,59.904 L14.580413,1 L31.0768656,1 C38.5322278,1 44.834785,1.08539296 47.8144169,4.74059731 C48.1800253,5.04004461 48.5140993,5.37218872 48.8144169,5.74059731 C49.1800253,6.04004461 49.5140993,6.37218872 49.8144169,6.74059731 C50.1800253,7.04004461 50.5140993,7.37218872 50.8144169,7.74059731 C51.1800253,8.04004461 51.5140993,8.37218872 51.8144169,8.74059731 C52.4286677,9.24369224 52.9539074,9.83907925 53.3795986,10.5436773 L53.736,9 L79.296,9 L79.0664918,10 L80.296,10 L80.0664918,11 L81.296,11 L81.0664918,12 L82.296,12 L82.0664918,13 L82.8124873,13 L83.736,9 L98.568,9 C103.841507,9 109.346763,9 111.915283,12.2533545 C112.284375,12.5468116 112.619325,12.8784859 112.915283,13.2533545 C113.284375,13.5468116 113.619325,13.8784859 113.915283,14.2533545 C114.284375,14.5468116 114.619325,14.8784859 114.915283,15.2533545 C115.284375,15.5468116 115.619325,15.8784859 115.915283,16.2533545 C117.454563,17.477201 118.4,19.3657454 118.4,22.28 C118.4,22.7315897 118.367218,23.2662284 118.306222,23.8553586 L121.736,9 L147.296,9 L147.066492,10 L148.296,10 L148.066492,11 L149.296,11 L149.066492,12 L150.296,12 L150.066492,13 L151.296,13 L151.066492,14 L151.581609,14 L152.736,9 L164.976,9 L164.742026,10 L165.976,10 L165.742026,11 L166.976,11 L166.742026,12 L167.976,12 L167.742026,13 L168.976,13 L168.742026,14 L169.976,14 L169.493077,16.064 L173.976,9 L187.08,9 L186.382752,10 L188.08,10 L187.382752,11 L189.08,11 L188.382752,12 L190.08,12 L189.382752,13 L191.08,13 L190.382752,14 L192.08,14 L175.664,37.544 L181.928,64.832 L169.328,64.832 L169.151219,63.832 L168.328,63.832 L168.151219,62.832 L167.328,62.832 L167.151219,61.832 L166.328,61.832 L166.151219,60.832 L165.328,60.832 L165.151219,59.832 L164.328,59.832 L162.178674,47.6738701 L158.24,64.832 L146,64.832 L146.230878,63.832 L145,63.832 L145.230878,62.832 L144,62.832 L144.230878,61.832 L143,61.832 L143.230878,60.832 L142.759226,60.832 L142.759226,60.832 Z M142.137768,54.904 L144.899071,42.944 L132.424,42.944 L130.610889,50.904 L138.872,50.904 L138.646194,51.904 L139.872,51.904 L139.646194,52.904 L140.872,52.904 L140.646194,53.904 L141.872,53.904 L141.646194,54.904 L142.137768,54.904 L142.137768,54.904 Z M146.893858,34.304 L149.553575,22.784 L137.104,22.784 L135.59625,29.304 L141.968,29.304 L141.743,30.304 L142.968,30.304 L142.743,31.304 L143.968,31.304 L143.743,32.304 L144.968,32.304 L144.743,33.304 L145.968,33.304 L145.743,34.304 L146.893858,34.304 L146.893858,34.304 Z M116.460709,31.848807 C116.318862,32.2168941 116.172856,32.5580192 116.024,32.864 C114.523158,36.0880303 112.20693,37.509628 109.472901,38.2552829 C109.5683,38.3610409 109.659712,38.4713568 109.746593,38.5864486 C110.116886,38.8720768 110.45692,39.2027174 110.746593,39.5864486 C111.116886,39.8720768 111.45692,40.2027174 111.746593,40.5864486 C112.719781,41.3371236 113.48396,42.3987086 113.674231,43.9178445 L116.460709,31.848807 L116.460709,31.848807 Z M73.3686459,53.904 L75.8990708,42.944 L64.424,42.944 L62.6108889,50.904 L70.872,50.904 L70.6461935,51.904 L71.872,51.904 L71.6461935,52.904 L72.872,52.904 L72.6461935,53.904 L73.3686459,53.904 L73.3686459,53.904 Z M77.8938584,34.304 L80.5535751,22.784 L69.104,22.784 L67.59625,29.304 L73.968,29.304 L73.743,30.304 L74.968,30.304 L74.743,31.304 L75.968,31.304 L75.743,32.304 L76.968,32.304 L76.743,33.304 L77.968,33.304 L77.743,34.304 L77.8938584,34.304 L77.8938584,34.304 Z" id="path-1"></path>
        <filter x="-1.0%" y="-6.2%" width="104.1%" height="124.7%" filterUnits="objectBoundingBox" id="filter-2">
            <feOffset dx="4" dy="4" in="SourceAlpha" result="shadowOffsetOuter1"></feOffset>
            <feGaussianBlur stdDeviation="2" in="shadowOffsetOuter1" result="shadowBlurOuter1"></feGaussianBlur>
            <feColorMatrix values="0 0 0 0 0   0 0 0 0 0   0 0 0 0 0  0 0 0 0.75 0" type="matrix" in="shadowBlurOuter1"></feColorMatrix>
        </filter>
        <linearGradient x1="50%" y1="0%" x2="50%" y2="100%" id="linearGradient-3">
            <stop stop-color="#DC1D07" offset="0%"></stop>
            <stop stop-color="#FFC44A" offset="100%"></stop>
        </linearGradient>
        <path d="M-3.55271368e-15,58.904 L13.580413,-3.19744231e-14 L30.0768656,-3.19744231e-14 C40.4912928,-3.19744231e-14 48.6562037,0.166630835 48.6562037,9.99785007 C48.6562037,11.4975276 48.4062574,13.580413 47.9896803,15.579983 L41.324447,44.5737482 C38.9082999,55.2381216 36.6587836,58.904 25.0779406,58.904 L-3.55271368e-15,58.904 Z M28.6892308,8.504 L23.8781538,8.504 L14.256,50.2 C19.512547,50.2 19.690735,50.2 20.9380513,50.021812 C22.2744615,49.8436239 24.769094,49.4872479 26.0164103,44.1416068 L32.9657436,13.582359 C33.0548376,13.0477949 33.1439316,12.5132308 33.1439316,11.9786667 C33.1439316,9.0385641 31.2729573,8.504 28.6892308,8.504 Z M41,58.832 L52.736,8 L78.296,8 L76.28,16.784 L63.104,16.784 L60.44,28.304 L72.968,28.304 L71.024,36.944 L58.424,36.944 L55.472,49.904 L69.872,49.904 L67.856,58.832 L41,58.832 Z M71,58.832 L82.736,8 L97.568,8 C104.768,8 112.4,8 112.4,16.28 C112.4,18.872 111.32,24.2 110.024,26.864 C108.08,31.04 104.768,32.192 100.952,32.768 C102.896,33.128 107.72,34.064 107.72,38.672 C107.72,39.68 107.504,40.688 107.216,42.344 L105.632,50.048 C105.416,51.128 104.696,54.728 104.696,55.592 C104.696,57.824 106.208,58.328 106.928,58.616 L106.928,59.048 L96.272,58.688 C94.112,58.616 92.6,57.824 92.6,55.52 C92.6,55.16 92.6,54.656 93.104,52.352 L94.976,43.28 C95.336,41.48 95.48,40.832 95.48,40.184 C95.48,37.664 93.464,37.448 91.88,37.448 L88.352,37.448 L83.384,58.832 L71,58.832 Z M93.104,16.784 L90.368,28.448 L93.752,28.448 C96.344,28.376 97.856,28.376 99.008,25.784 C99.728,24.272 100.52,19.736 100.52,19.016 C100.52,17.072 98.936,16.928 98.144,16.856 C97.424,16.784 96.992,16.784 93.104,16.784 Z M109,58.832 L120.736,8 L146.296,8 L144.28,16.784 L131.104,16.784 L128.44,28.304 L140.968,28.304 L139.024,36.944 L126.424,36.944 L123.472,49.904 L137.872,49.904 L135.856,58.832 L109,58.832 Z M158.72,30.464 L172.976,8 L186.08,8 L169.664,31.544 L175.928,58.832 L163.328,58.832 L158.504,31.544 L152.24,58.832 L140,58.832 L151.736,8 L163.976,8 L158.72,30.464 Z M199.580413,-2.84217094e-14 L213.910665,-2.84217094e-14 L208.411847,23.9948402 L218.159751,23.9948402 L223.658569,-2.84217094e-14 L237.98882,-2.84217094e-14 L224.325092,58.904 L210.078156,58.904 L215.826919,34.1593211 L206.079016,34.1593211 L200.330252,58.904 L186,58.904 L199.580413,-2.84217094e-14 Z M231.864,40.992 L236.544,21.336 C238.488,13.056 240.504,6 254.544,6 C257.208,6 262.68,6.36 265.992,8.664 C269.448,11.112 269.952,14.496 269.952,17.016 C269.952,20.328 268.872,24.864 268.08,28.176 L264.048,45.312 C261.672,55.248 257.496,58.776 246.264,58.776 C239.568,58.776 231,56.904 231,47.328 C231,45.384 231.504,42.576 231.864,40.992 Z M250.224,18.24 C249.288,21.408 243.168,44.736 243.168,46.608 C243.168,48.552 244.536,49.56 246.912,49.56 C250.296,49.56 251.16,47.112 252.312,42.576 C253.032,39.84 256.2,26.52 256.92,23.496 C257.928,19.536 258,19.104 258,18.384 C258,16.44 256.848,15.144 254.472,15.144 C251.304,15.144 250.656,16.872 250.224,18.24 Z M269.804739,37.808 L276.860739,8 L289.100739,8 L280.748739,44.36 C280.604739,44.792 280.316739,46.088 280.316739,47.168 C280.316739,49.256 281.828739,50.192 284.060739,50.192 C287.588739,50.192 288.452739,47.168 289.172739,44.36 L297.524739,8 L309.764739,8 L301.340739,44.36 C299.540739,52.136 297.020739,59.696 283.124739,59.696 C274.988739,59.696 267.788739,56.816 268.004739,48.536 C268.076739,46.16 268.508739,43.352 269.804739,37.808 Z M343.52,20.896 L342.008,27.16 L330.2,27.16 L331.568,21.184 C331.712,20.68 331.784,20.104 331.784,19.528 C331.784,16.648 329.624,16.288 327.968,16.288 C325.016,16.288 324.44,17.728 323.864,19.312 L317.816,45.376 C317.6,46.24 317.384,47.176 317.384,48.04 C317.384,50.56 319.832,50.848 320.912,50.848 C324.08,50.848 324.872,48.688 325.232,47.68 C326.096,45.232 326.744,42.28 327.32,39.544 L339.92,39.544 L338.12,46.888 C335.888,56.032 332.72,59.704 320.264,59.704 C317.024,59.704 314.072,59.416 311.552,58.408 C309.032,57.4 305,54.88 305,49.624 C305,48.832 305,47.248 306.152,42.496 L311.048,21.112 C312.632,14.128 314.576,11.536 316.736,9.952 C320.12,7.432 325.808,7 328.976,7 C332.072,7 335.96,7.432 338.48,8.512 C340.928,9.592 343.952,11.824 343.952,17.296 C343.952,18.376 343.808,19.6 343.52,20.896 Z M356.72,30.464 L370.976,8 L384.08,8 L367.664,31.544 L373.928,58.832 L361.328,58.832 L356.504,31.544 L350.24,58.832 L338,58.832 L349.736,8 L361.976,8 L356.72,30.464 Z" id="path-4"></path>
        <filter x="-0.4%" y="-2.5%" width="100.8%" height="105.0%" filterUnits="objectBoundingBox" id="filter-5">
            <feMorphology radius="1" operator="erode" in="SourceAlpha" result="shadowSpreadInner1"></feMorphology>
            <feGaussianBlur stdDeviation="0.5" in="shadowSpreadInner1" result="shadowBlurInner1"></feGaussianBlur>
            <feOffset dx="1" dy="1" in="shadowBlurInner1" result="shadowOffsetInner1"></feOffset>
            <feComposite in="shadowOffsetInner1" in2="SourceAlpha" operator="arithmetic" k2="-1" k3="1" result="shadowInnerInner1"></feComposite>
            <feColorMatrix values="0 0 0 0 1   0 0 0 0 1   0 0 0 0 1  0 0 0 0.5 0" type="matrix" in="shadowInnerInner1"></feColorMatrix>
        </filter>
    </defs>
    <g id="Page-1" stroke="none" stroke-width="1" fill="none" fill-rule="evenodd">
        <g id="Outlines-with-3D-effect" transform="translate(0.584000, 0.304000)" fill-rule="nonzero">
            <g id="3D-Effect-Flattened">
                <use fill="black" fill-opacity="1" filter="url(#filter-2)" xlink:href="#path-1"></use>
                <use fill="#0857A8" xlink:href="#path-1"></use>
            </g>
            <g id="Outlines">
                <use fill="url(#linearGradient-3)" xlink:href="#path-4"></use>
                <use fill="black" fill-opacity="1" filter="url(#filter-5)" xlink:href="#path-4"></use>
                <use xlink:href="#path-4"></use>
            </g>
        </g>
    </g>
</svg>